<svg width="509" height="485" viewBox="0 0 509 485" fill="none" xmlns="http://www.w3.org/2000/svg">
<path d="M430.076 2.34103C423.712 5.34396 419.646 8.72226 414.166 16.3547C411.868 19.4828 406.388 24.1123 401.969 26.6147C397.727 29.1172 393.307 32.7457 392.247 34.6226C391.363 36.4994 388.711 46.3841 386.767 56.7692C380.933 85.9227 372.448 105.317 361.842 113.7L356.539 118.079L360.958 113.7C368.736 105.942 369.797 102.564 369.974 86.1729C369.974 71.2834 370.327 70.0322 375.807 61.5238C378.812 56.6441 381.464 51.7643 381.464 50.6382C381.464 49.5121 382.701 48.6363 384.115 48.6363C385.529 48.6363 386.767 47.8855 386.767 46.8846C386.767 45.8836 385.529 44.8826 384.115 44.3821C382.348 44.0067 381.464 42.0048 381.464 38.7516C381.464 31.6196 377.221 29.8679 360.251 29.8679C336.21 29.993 324.897 36.2492 324.897 49.6372C324.897 53.2658 326.134 57.8953 327.549 59.8973C330.907 64.6519 339.215 67.6548 345.579 66.6539C348.938 66.1534 349.822 66.2785 348.231 67.1544C346.463 68.0302 347.17 68.5307 351.236 69.0312C360.605 70.4075 363.787 73.9109 363.787 82.7946C363.787 95.8074 360.605 104.816 350.529 119.33C334.266 142.978 298.381 208.292 282.825 242.576C273.633 262.72 272.573 266.349 275.755 266.349C278.937 266.349 284.77 259.217 283.179 257.34C282.472 256.464 282.649 256.339 283.886 256.84C286.361 257.841 292.018 250.584 290.25 248.582C289.543 247.706 289.72 247.581 290.957 248.081C293.432 249.082 312.523 222.806 311.109 220.179C310.579 219.178 311.109 218.803 312.346 219.303C313.584 219.929 313.937 219.428 313.053 218.052C312.346 216.55 312.523 216.175 313.937 216.801C315.351 217.426 315.705 216.926 314.821 215.549C314.114 214.048 314.291 213.673 315.705 214.298C317.119 214.924 317.473 214.423 316.589 213.047C315.882 211.671 316.235 211.17 317.296 211.671C319.417 212.546 325.427 203.663 340.099 178.138C345.579 168.503 351.943 158.368 354.064 155.616C362.372 145.481 389.595 91.3029 392.954 78.4154C394.545 72.4095 396.843 71.1583 410.631 69.1563C434.495 65.6529 445.808 58.0204 445.808 45.5082C445.985 37.3753 442.096 32.996 431.136 28.9921C427.071 27.4906 422.475 25.6138 421.06 24.863C415.404 21.4847 419.646 12.7262 430.606 4.46811C437.854 -0.787048 437.677 -1.28754 430.076 2.34103ZM429.192 32.996C436.616 35.7487 439.798 39.6275 439.798 46.0087C439.798 56.2687 427.601 63.6509 410.808 63.6509C404.267 63.6509 402.323 63.0253 398.434 59.7721C383.055 46.8846 407.979 25.2384 429.192 32.996ZM367.145 36.8748C381.11 45.1328 371.741 64.9022 353.887 64.9022C339.746 64.9022 330.907 57.6451 332.498 47.5102C334.443 35.3733 354.418 29.2423 367.145 36.8748ZM405.504 67.2795C395.605 68.2805 392.777 70.2824 391.186 77.7897C387.297 94.0556 354.948 156.241 350.175 156.241C345.049 156.241 346.109 152.488 354.771 140.476C366.085 124.585 378.282 102.564 385.529 84.4212C388.711 76.5385 392.423 69.2814 393.661 68.1553C395.252 66.779 398.787 66.1534 405.151 66.2785L414.166 66.5287L405.504 67.2795ZM345.049 155.741C346.64 156.116 347.877 157.242 347.877 158.118C347.877 158.994 342.751 168.003 336.387 178.138C330.2 188.273 325.427 197.282 326.134 198.032C326.665 198.783 326.488 199.033 325.781 198.408C324.897 197.907 316.235 208.668 306.336 222.181C286.891 248.707 278.937 258.842 278.937 257.215C278.937 255.088 299.265 218.677 313.407 195.655C340.453 151.862 338.685 153.989 345.049 155.741Z" fill="black"/>
<path d="M470.38 53.8916C464.37 59.2718 372.979 165.501 340.453 204.789C318.887 230.689 300.15 253.336 298.735 255.088C297.145 256.84 296.791 257.591 297.852 256.965C298.912 256.214 320.125 233.442 345.049 206.29C370.151 179.139 391.363 156.617 392.247 156.492C393.838 155.991 397.55 156.992 414.167 161.872C418.056 163.123 420.707 163.624 420 162.998C419.293 162.498 419.647 161.246 420.707 160.12C422.475 158.494 422.475 158.369 420.354 159.62C416.818 161.872 414.167 161.622 416.818 159.37C418.056 158.369 418.409 157.493 417.702 157.493C416.995 157.493 417.349 156.617 418.586 155.616C419.824 154.615 420.177 153.739 419.47 153.739C418.763 153.739 419.116 152.863 420.354 151.862C421.591 150.861 421.945 149.985 421.238 149.985C420.531 149.985 420.884 149.11 422.122 148.109C423.359 147.108 423.713 146.232 423.005 146.232C422.298 146.232 422.652 145.356 423.889 144.355C425.127 143.354 425.48 142.478 424.773 142.478C424.066 142.478 424.42 141.602 425.657 140.601C426.894 139.6 428.662 138.724 429.546 138.724C430.607 138.724 430.43 139.6 429.192 140.601C427.955 141.602 427.601 142.478 428.309 142.478C429.016 142.478 428.662 143.354 427.425 144.355C426.187 145.356 425.834 146.232 426.541 146.232C427.248 146.232 426.718 147.233 425.48 148.359C423.182 150.361 423.359 150.486 426.187 148.859C427.778 147.858 428.839 146.857 428.309 146.482C427.778 146.107 428.309 145.106 429.369 144.105C430.43 143.229 430.783 142.478 430.076 142.478C429.369 142.478 429.723 141.602 430.96 140.601C432.198 139.6 432.551 138.724 431.844 138.724C431.137 138.724 431.49 137.849 432.728 136.848C433.965 135.847 434.319 134.971 433.612 134.971C432.905 134.971 433.258 134.095 434.496 133.094C435.733 132.093 437.501 131.217 438.385 131.217C439.445 131.217 439.268 132.093 438.031 133.094C436.794 134.095 436.44 134.971 437.147 134.971C437.854 134.971 437.501 135.847 436.263 136.848C435.026 137.849 434.672 138.724 435.379 138.724C436.086 138.724 435.556 139.725 434.319 140.852C432.021 142.853 432.198 142.979 435.026 141.352C436.617 140.351 437.677 139.35 437.147 138.975C436.617 138.599 437.147 137.598 438.208 136.597C439.268 135.721 439.622 134.971 438.915 134.971C438.208 134.971 438.561 134.095 439.799 133.094C441.036 132.093 441.39 131.217 440.683 131.217C439.975 131.217 440.329 130.341 441.566 129.34C442.804 128.339 443.157 127.463 442.45 127.463C441.743 127.463 442.097 126.588 443.334 125.587C445.986 123.334 449.344 123.084 447.4 125.211C445.455 127.589 445.102 130.091 447.223 129.215C448.107 128.84 448.46 128.089 447.93 127.714C447.4 127.338 448.107 125.962 449.875 124.711C451.466 123.46 452.173 122.459 451.289 122.459C450.582 122.459 450.935 121.583 452.173 120.582C453.41 119.581 453.764 118.705 453.056 118.705C452.349 118.705 452.703 117.829 453.94 116.828C455.178 115.827 455.531 114.951 454.824 114.951C454.117 114.951 454.471 114.075 455.708 113.074C456.945 112.073 457.299 111.198 456.592 111.198C455.885 111.198 456.238 110.322 457.476 109.321C458.713 108.32 459.067 107.444 458.36 107.444C457.653 107.444 458.183 106.568 459.42 105.317C460.834 104.191 461.718 102.939 461.365 102.564C461.011 102.189 461.541 101.688 462.425 101.438C464.547 100.938 464.37 103.44 462.249 105.817C461.365 106.693 461.365 107.444 462.072 107.444C462.602 107.444 462.249 108.32 461.011 109.321C459.774 110.322 459.42 111.198 460.127 111.198C460.834 111.198 460.481 112.073 459.243 113.074C458.006 114.075 457.653 114.951 458.36 114.951C459.067 114.951 458.713 115.827 457.476 116.828C456.238 117.829 455.885 118.705 456.592 118.705C457.299 118.705 456.769 119.706 455.531 120.832C453.233 122.834 453.41 122.959 456.238 121.332C457.829 120.331 458.89 119.33 458.36 118.955C457.829 118.58 458.36 117.579 459.42 116.578C460.481 115.702 460.834 114.951 460.127 114.951C459.42 114.951 459.774 114.075 461.011 113.074C462.249 112.073 462.602 111.198 461.895 111.198C461.011 111.198 461.718 110.197 463.309 108.945C464.723 107.819 466.138 106.443 466.138 105.817C466.314 105.317 466.491 104.691 466.491 104.316C466.668 103.94 466.845 103.065 467.021 102.189C467.021 101.438 468.082 100.562 469.319 100.312C470.91 99.9365 471.264 103.315 469.85 104.566C469.496 104.816 469.319 105.317 469.143 105.817C468.966 106.443 468.259 107.694 467.375 108.695C466.138 110.197 466.138 110.322 468.259 108.945C469.673 108.069 470.91 106.818 470.91 106.193C471.087 105.442 471.441 104.691 471.617 104.316C471.794 103.94 472.325 103.065 472.501 102.439C472.678 101.688 473.208 100.938 473.385 100.562C473.562 100.187 474.092 99.3109 474.269 98.6853C474.446 97.9346 474.976 97.1839 475.153 96.8085C475.33 96.4331 475.86 95.5573 476.037 94.9317C476.213 94.1809 476.744 93.4302 476.921 93.0548C477.097 92.6795 477.628 91.8036 477.804 91.178C477.981 90.4272 478.512 89.6765 478.688 89.3011C478.865 88.9258 479.219 88.0499 479.395 87.1741C479.395 86.4233 480.456 85.5475 481.693 85.2972C483.284 84.9219 483.638 88.3002 482.224 89.5514C481.87 89.8016 481.517 90.4272 481.34 91.178C481.163 91.8036 480.81 92.5543 480.456 92.6795C480.279 92.9297 479.926 94.0558 479.572 95.4321C479.042 97.1839 479.395 97.4341 480.986 96.308C482.224 95.4321 483.284 94.306 483.284 93.5553C483.461 92.9297 483.815 92.179 483.991 91.8036C484.168 91.4282 484.698 90.5524 484.875 89.9268C485.052 89.176 485.582 88.4253 485.759 88.0499C485.936 87.6746 486.466 86.7987 486.643 86.1731C486.82 85.4224 487.35 84.6716 487.527 84.2963C487.704 83.9209 488.234 83.045 488.411 82.4194C488.587 81.6687 489.118 80.918 489.295 80.5426C489.471 80.1672 489.825 79.2914 490.002 78.4155C490.002 77.6648 491.062 76.7889 492.3 76.5387C493.891 76.1633 494.244 79.5416 492.83 80.7928C492.476 81.0431 492.3 82.1692 492.123 83.2953C491.946 84.5465 491.239 86.4233 490.178 87.4243C488.764 89.0509 488.941 89.0509 491.593 87.5494C493.183 86.6736 494.244 85.4224 493.714 84.9219C493.183 84.2963 493.537 83.5455 494.598 83.045C495.658 82.5446 496.012 81.7938 495.482 81.1682C494.951 80.5426 495.305 79.7919 496.365 79.2914C497.426 78.7909 497.78 78.0401 497.249 77.4145C496.719 76.7889 497.072 76.0382 498.133 75.5377C499.194 75.0372 499.547 74.2865 499.017 73.6609C498.487 73.0353 498.84 72.1594 499.901 71.784C502.906 70.5328 498.487 67.4048 495.128 68.2806C493.36 68.7811 492.653 68.5309 493.537 67.655C494.067 66.9043 493.891 65.9033 492.83 65.5279C491.769 65.0274 491.239 65.4028 491.416 66.4038C491.769 67.4048 490.532 67.9052 488.411 67.655C485.406 67.4048 485.229 67.5299 487.527 68.7811C489.825 69.9072 489.648 70.0323 486.997 69.4067C484.875 68.9062 484.168 69.1565 485.052 70.1575C485.936 71.0333 485.582 71.1584 483.991 70.5328C482.577 69.9072 482.047 70.0323 482.931 70.9082C483.638 71.6589 485.406 71.9092 486.997 71.5338C488.941 71.0333 489.471 71.1584 488.587 72.2845C487.704 73.1604 485.936 73.5358 484.168 73.1604C482.224 72.6599 482.4 72.9101 484.875 74.2865C488.234 76.1633 488.057 76.2884 482.224 75.5377C476.39 74.787 476.213 74.9121 479.572 76.7889C482.047 78.1653 482.224 78.4155 480.279 77.915C478.512 77.5397 476.744 77.915 475.86 78.7909C474.976 79.917 475.506 80.0421 477.451 79.5416C479.042 79.1662 480.81 79.1662 481.163 79.7919C481.693 80.2924 480.986 80.7928 479.572 80.918C478.158 81.0431 475.683 81.2933 474.269 81.4185C472.855 81.5436 472.148 82.0441 472.678 82.5446C473.032 83.1702 474.799 83.1702 476.39 82.7948C478.335 82.2943 478.865 82.4194 477.981 83.5455C477.097 84.4214 475.506 84.7968 474.446 84.5465C473.208 84.1711 472.148 84.6716 472.148 85.5475C472.148 86.5485 473.385 86.9238 474.799 86.4233C476.567 85.9229 477.097 86.2982 476.213 87.2992C475.33 88.175 473.562 88.5504 472.148 88.175C470.734 87.7997 470.203 88.0499 470.734 88.6755C471.264 89.3011 470.734 89.5514 469.319 89.176C467.905 88.8007 466.138 89.176 465.254 90.0519C464.37 91.178 464.9 91.3031 466.845 90.8026C468.436 90.4272 470.203 90.4272 470.557 91.0529C471.087 91.5534 470.38 92.0538 468.966 92.179C467.552 92.3041 465.254 92.5543 463.84 92.6795C462.425 92.8046 461.541 93.8056 461.895 95.0568C462.249 96.5582 461.718 97.0587 460.127 96.6834C458.89 96.308 457.299 96.6834 456.592 97.4341C455.885 98.31 457.299 98.5602 461.011 98.0597C464.723 97.5592 466.138 97.8095 465.43 98.6853C464.723 99.4361 462.956 99.8114 461.541 99.4361C460.127 99.0607 459.597 99.3109 460.127 99.9365C460.658 100.562 460.127 100.812 458.713 100.437C457.299 100.062 455.531 100.437 454.647 101.313C453.764 102.439 454.294 102.564 456.769 101.939C459.42 101.188 459.597 101.313 458.006 102.564C456.592 103.565 455.178 103.69 453.587 102.814C450.582 101.188 443.688 101.063 442.273 102.564C441.743 103.315 443.511 103.44 446.87 103.065C450.582 102.564 451.996 102.814 451.289 103.69C450.582 104.441 448.814 104.816 447.046 104.441C445.455 103.94 446.162 104.816 448.637 106.193C451.112 107.569 451.819 108.445 450.228 107.944C448.46 107.569 446.693 107.944 445.986 108.695C445.279 109.571 446.693 109.821 450.405 109.321C454.117 108.82 455.531 109.07 454.824 109.946C454.117 110.697 452.349 111.072 450.935 110.697C449.521 110.322 448.991 110.572 449.521 111.198C450.051 111.823 449.521 112.073 448.107 111.698C446.693 111.323 444.925 111.698 444.218 112.449C443.511 113.325 444.925 113.575 448.637 113.074C451.996 112.699 453.764 112.824 453.233 113.575C452.526 114.2 450.582 114.826 448.637 114.826C446.693 114.951 443.511 114.951 441.566 115.076C439.622 115.076 437.677 115.702 436.97 116.328C436.44 117.078 438.208 117.203 441.566 116.828C445.279 116.328 446.693 116.578 445.986 117.454C445.279 118.204 443.511 118.58 442.097 118.204C440.683 117.829 440.152 118.079 440.683 118.705C441.213 119.33 440.683 119.581 439.268 119.205C437.854 118.83 436.086 119.205 435.379 119.956C434.672 120.832 436.086 121.082 439.799 120.582C443.157 120.206 444.925 120.331 444.395 121.082C443.688 121.708 441.566 122.333 439.268 122.333C430.607 122.459 429.192 122.709 428.132 123.835C427.601 124.586 429.369 124.711 432.728 124.335C436.44 123.835 437.854 124.085 437.147 124.961C436.44 125.712 434.672 126.087 433.258 125.712C431.844 125.336 431.314 125.587 431.844 126.212C432.374 126.838 431.844 127.088 430.43 126.713C429.016 126.337 427.248 126.713 426.541 127.463C425.834 128.339 427.248 128.59 430.96 128.089C434.319 127.714 436.086 127.839 435.556 128.59C434.496 129.716 433.258 129.841 423.536 129.966C420.707 130.091 420.177 130.341 421.945 131.092C424.95 132.468 421.768 133.97 418.056 132.969C416.642 132.593 414.874 132.969 414.167 133.72C413.46 134.47 413.99 135.096 415.228 134.846C420 134.47 422.298 134.971 421.238 136.222C420.531 136.973 418.586 137.223 416.818 136.848C415.051 136.472 412.929 136.848 412.222 137.598C411.339 138.724 411.869 138.85 413.99 138.349C415.758 137.849 416.642 137.974 415.935 138.724C415.228 139.475 416.111 139.6 417.879 139.1C420 138.599 420.531 138.724 419.647 139.851C418.94 140.601 416.818 140.977 415.051 140.601C413.283 140.226 411.162 140.601 410.455 141.352C409.571 142.478 410.101 142.603 412.222 142.103C413.99 141.602 414.874 141.727 414.167 142.478C413.46 143.229 414.344 143.354 416.111 142.853C418.233 142.353 418.763 142.478 417.879 143.604C417.172 144.355 415.051 144.73 413.283 144.355C411.515 143.98 409.394 144.355 408.687 145.106C407.803 146.232 408.333 146.357 410.455 145.856C412.222 145.356 413.106 145.481 412.399 146.232C411.692 146.982 412.576 147.108 414.344 146.607C416.288 146.107 416.995 146.232 416.111 147.233C415.404 147.983 412.046 148.359 408.333 148.109C401.97 147.608 401.97 147.608 406.035 149.235C408.51 150.236 411.692 150.611 413.106 150.236C415.228 149.735 415.404 149.985 413.99 151.112C412.399 152.363 410.985 152.363 407.98 151.237C405.328 150.236 404.444 150.236 405.152 151.112C406.035 151.987 405.152 152.238 403.207 151.737C400.556 151.237 400.556 151.362 403.561 152.738C406.919 154.24 409.217 157.493 407.096 157.493C406.566 157.493 404.091 156.617 401.616 155.491C397.55 153.489 397.374 153.239 400.202 151.112C401.97 149.735 402.5 148.734 401.616 148.734C400.732 148.734 401.97 147.608 404.444 146.232C407.45 144.605 407.98 143.729 406.212 143.729C404.091 143.729 404.268 143.354 406.743 142.353C408.333 141.602 409.394 140.601 408.864 140.101C408.51 139.475 409.217 138.349 410.631 137.473C412.046 136.597 412.929 135.471 412.399 134.971C411.869 134.345 413.283 132.969 415.404 131.843C417.702 130.842 419.647 129.34 419.647 128.715C419.824 127.964 420.177 127.213 420.354 126.838C420.531 126.462 420.884 125.587 421.061 124.836C421.061 124.21 423.182 122.459 425.657 120.957C429.369 118.955 429.546 118.58 426.541 119.205L423.005 119.956L426.541 117.954C428.485 116.953 429.9 115.577 429.723 114.951C429.546 114.451 430.607 113.2 432.198 112.199C434.672 110.822 435.026 110.822 433.788 112.324C432.728 113.45 433.081 113.825 434.672 113.45C436.086 113.074 437.324 112.199 437.324 111.448C437.501 110.572 437.854 109.696 438.031 109.321C438.208 108.945 438.561 107.694 438.738 106.443C438.915 105.317 439.799 103.44 440.683 102.439C441.566 101.438 442.45 100.187 442.45 99.6863C442.45 99.3109 443.157 98.4351 444.041 97.8095C444.925 97.1839 445.102 97.5592 444.218 98.5602C443.334 99.6863 443.688 100.062 445.279 99.6863C446.693 99.3109 447.93 98.4351 447.93 97.6843C448.107 96.8085 448.46 95.8075 448.637 95.1819C448.814 94.6814 448.991 93.9307 448.991 93.4302C448.814 93.0548 450.051 91.9287 451.642 90.9277C454.117 89.5514 454.471 89.5514 453.233 91.0529C452.173 92.179 452.526 92.5543 454.117 92.179C455.531 91.8036 456.592 91.0529 456.592 90.4272C456.592 89.8016 457.122 88.6755 457.653 88.0499C458.36 87.2992 458.536 85.7977 458.36 84.6716C458.006 83.5455 458.89 81.9189 460.127 81.1682C461.895 80.0421 462.425 80.2924 461.895 82.0441C461.541 83.2953 461.188 84.2963 461.011 84.2963C460.834 84.2963 460.481 85.2972 460.127 86.5485C459.774 87.9248 460.481 88.5504 461.541 88.3002C462.779 88.0499 463.84 87.1741 463.84 86.4233C464.016 85.5475 464.37 84.6716 464.547 84.2963C464.723 83.9209 465.254 82.5446 465.43 81.1682C465.607 79.7919 466.138 78.4155 466.314 78.0401C466.491 77.6648 466.845 76.914 467.021 76.1633C467.021 75.5377 468.082 74.4116 469.319 73.5358C470.91 72.4097 471.264 72.6599 470.734 74.4116C470.38 75.7879 470.027 76.7889 469.85 76.7889C469.673 76.7889 469.319 77.7899 468.966 79.0411C468.612 80.4175 469.319 81.0431 470.38 80.7928C471.617 80.5426 472.678 79.6667 472.678 78.916C472.855 78.0401 473.208 77.1643 473.385 76.7889C473.562 76.4136 474.092 75.0372 474.269 73.6609C474.446 72.2845 474.976 70.9082 475.153 70.5328C475.33 70.1575 475.86 69.2816 476.037 68.656C476.213 67.9052 476.744 67.1545 476.921 66.7791C477.097 66.4038 477.451 65.653 477.628 65.0274C477.628 64.4018 478.335 63.4008 479.042 62.9004C479.749 62.525 479.926 63.2757 479.572 64.7772C479.042 66.5289 479.572 67.4048 480.986 67.0294C482.224 66.7791 483.284 65.9033 483.284 65.1526C483.461 64.2767 483.815 63.2757 483.991 62.6501C484.168 62.1496 484.345 61.2738 484.168 60.7733C483.815 59.5221 486.113 60.523 496.896 66.0284C501.668 68.5309 504.497 70.9082 503.79 71.6589C503.083 72.4097 502.552 73.9111 502.552 74.9121C502.552 75.9131 501.845 77.6648 500.785 78.6658C499.37 80.2924 499.547 80.2924 502.199 78.7909C503.79 77.915 504.85 76.6638 504.32 76.1633C503.79 75.5377 505.027 74.2865 507.148 73.2855C510.684 71.5338 510.33 71.1584 495.482 61.8994C480.279 52.5152 474.092 50.5133 470.38 53.8916Z" fill="black"/>
<path d="M112.065 84.4214C82.721 89.051 58.3267 98.4351 39.9425 112.199C31.6343 118.455 27.9221 122.333 26.1544 126.713C23.6796 133.219 24.2099 134.345 29.6898 133.094C35.7 131.718 46.3062 124.461 58.857 113.074C68.7561 104.066 83.9584 94.9317 88.908 94.9317C89.7919 94.9317 86.9635 96.5583 82.5443 98.5602C73.3522 102.814 68.4026 106.443 57.266 117.579C48.781 126.212 36.5838 134.971 32.8717 134.971C31.811 134.971 31.2807 135.346 31.811 135.722C33.7555 136.973 42.7708 132.719 56.3822 124.085C72.6451 113.825 85.3726 108.32 101.636 104.316C126.207 98.1849 149.894 97.4341 174.288 101.939C184.718 103.815 206.461 110.447 206.461 111.823C206.461 112.199 202.395 111.072 197.445 109.321C174.995 101.188 141.763 98.9356 115.6 103.69C95.9789 107.194 79.5392 113.825 61.8621 125.336C53.3771 130.717 43.8315 136.347 40.8263 137.724C37.6445 139.1 34.9929 140.476 34.9929 140.726C34.9929 140.852 38.5283 140.351 42.9476 139.475C47.3669 138.474 59.9176 133.469 70.7006 128.214C92.4434 117.954 104.994 114.075 123.202 112.574C135.399 111.448 154.844 112.699 162.268 114.826C165.98 116.077 165.803 116.077 160.5 115.327C157.142 114.701 145.651 114.326 134.868 114.451C112.242 114.576 101.812 116.828 83.9584 125.462C77.9482 128.464 67.5187 133.469 60.9782 136.597C54.4377 139.851 45.5992 143.104 41.5334 143.855C37.4677 144.73 33.2252 145.982 31.9878 146.732C30.7504 147.483 28.6292 155.741 27.0382 165C25.4473 174.259 23.1493 183.518 21.7351 185.52C18.5532 189.899 18.3764 194.154 21.2048 199.534C24.0331 205.039 21.7351 210.044 9.18436 225.559C0.699355 235.944 -0.538041 238.447 0.169042 242.201C1.58321 248.081 4.058 249.833 13.6036 251.835L21.7351 253.462L22.6189 261.845C23.1493 266.975 24.3867 270.603 25.9776 271.229C27.9221 272.105 27.9221 273.106 26.1544 276.609C24.0331 280.613 24.2099 281.364 28.0988 284.992C31.811 288.621 31.9878 289.247 29.8666 293C24.2099 302.885 23.8563 305.012 25.9776 310.017C27.215 313.145 30.2201 316.148 33.7555 317.9C39.2354 320.652 40.6496 320.777 68.0491 320.402C102.166 320.027 106.939 320.902 112.772 328.91C115.777 333.039 117.015 338.044 118.252 351.307C120.02 368.824 122.848 379.335 128.328 387.968L131.333 392.973V376.207C131.51 361.442 132.04 358.564 136.106 350.431C143.53 335.917 154.136 324.406 171.814 312.019C190.198 299.006 207.698 290.498 236.158 280.488C254.012 274.107 255.957 273.106 255.957 269.978C255.957 257.09 267.8 228.687 282.472 206.291C294.669 187.647 297.321 179.765 295.73 166.502C294.316 155.491 296.437 149.86 301.21 152.613C307.397 156.242 301.21 144.981 292.018 135.847C288.129 132.093 286.715 129.966 288.482 130.341C292.371 131.467 292.018 130.466 286.538 125.336C283.886 122.959 281.588 120.081 281.412 119.08C279.644 110.697 237.572 93.0549 203.809 86.6736C188.607 83.7958 181.89 83.2953 155.197 82.92C131.863 82.5446 121.257 82.92 112.065 84.4214Z" fill="black"/>
<path d="M405.682 188.523C422.829 212.922 410.278 242.826 371.211 271.104C354.065 283.491 336.741 293.125 303.862 308.891C254.366 332.414 231.916 354.685 225.906 386.216C219.012 422.502 248.179 458.787 297.144 474.803C303.508 476.805 304.746 477.555 301.033 477.055C298.205 476.68 287.422 473.552 277.346 470.048C261.79 464.793 256.841 462.291 245.527 454.283C221.31 437.016 210.527 416.746 212.294 391.471C214.592 356.437 238.81 332.038 296.261 306.638C331.968 290.873 355.832 276.859 367.322 265.098L371.565 260.719L365.555 264.097C350.176 272.605 332.322 280.738 302.801 292.625C261.26 309.391 247.472 316.148 230.148 328.41C206.638 345.051 193.733 366.447 193.38 389.595C193.38 395.726 193.91 403.608 194.441 407.112C195.501 412.492 195.501 412.867 193.733 409.614C192.673 407.487 191.789 398.228 191.612 388.969C191.435 374.455 191.966 370.701 195.501 362.693C207.875 334.791 231.739 316.023 284.24 293.125C332.145 272.23 346.817 264.723 363.08 253.336C389.242 234.693 401.086 217.301 398.257 201.786L396.843 194.404L393.661 204.539C389.772 217.301 385.883 222.807 374.217 231.815C360.428 242.576 338.332 252.21 279.114 273.231C214.416 296.128 197.269 303.886 174.465 320.027C160.677 329.911 156.258 334.04 150.248 342.674C140.349 356.938 136.99 366.947 136.99 381.462C137.344 428.508 186.132 468.296 259.846 481.434C285.831 486.189 315.705 486.189 333.206 481.434C337.802 480.308 337.625 480.183 328.786 477.055C313.761 471.8 304.038 461.665 298.205 445.149C295.023 436.39 294.493 432.261 295.2 418.998C296.614 394.975 305.983 377.958 324.367 366.447C339.216 357.188 360.252 354.936 391.187 359.315C415.051 362.693 430.253 363.319 435.202 361.067C438.915 359.315 439.445 357.939 439.975 349.806C440.506 343.675 441.743 339.671 443.864 337.544C445.632 335.917 448.991 332.664 451.289 330.412C455.708 326.032 455.531 323.28 450.582 320.402C448.107 319.151 448.637 318.4 454.471 315.022C462.072 310.517 462.956 306.638 457.476 301.759C451.819 296.629 452.88 292.375 460.834 287.245C467.905 282.74 471.617 278.986 471.617 276.234C471.617 275.483 465.607 270.603 458.359 265.598C446.516 257.215 444.748 255.338 441.743 247.831C439.799 243.201 437.324 235.194 436.086 230.064C432.374 213.297 419.116 193.153 405.682 184.019L399.672 179.89L405.682 188.523Z" fill="black"/>
</svg>
