<svg width="28" height="28" viewBox="0 0 28 28" fill="none" xmlns="http://www.w3.org/2000/svg">
<path d="M1 23.1666C1 21.4869 1.66726 19.876 2.85499 18.6882C4.04272 17.5005 5.65363 16.8333 7.33333 16.8333H20C21.6797 16.8333 23.2906 17.5005 24.4783 18.6882C25.6661 19.876 26.3333 21.4869 26.3333 23.1666C26.3333 24.0064 25.9997 24.8119 25.4058 25.4058C24.812 25.9996 24.0065 26.3333 23.1667 26.3333H4.16667C3.32681 26.3333 2.52136 25.9996 1.92749 25.4058C1.33363 24.8119 1 24.0064 1 23.1666Z" stroke="white" stroke-width="2" stroke-linejoin="round"/>
<path d="M13.6667 10.5C16.2901 10.5 18.4167 8.37335 18.4167 5.75C18.4167 3.12665 16.2901 1 13.6667 1C11.0434 1 8.91675 3.12665 8.91675 5.75C8.91675 8.37335 11.0434 10.5 13.6667 10.5Z" stroke="white" stroke-width="2"/>
</svg>
