<svg width="428" height="1503" viewBox="0 0 428 1503" fill="none" xmlns="http://www.w3.org/2000/svg">
<g clip-path="url(#clip0_67_11)">
<g filter="url(#filter0_f_67_11)">
<path d="M1066 1094.41L1115 857.41C1486 400 478.562 696.063 452.462 400L111 435.083C148.618 861.799 577.037 1157.58 1066 1094.41Z" fill="url(#paint0_linear_67_11)"/>
</g>
<g clip-path="url(#clip1_67_11)">
<g filter="url(#filter1_f_67_11)">
<path d="M-413.528 -167.476L-443.981 69.5387C-674.556 526.976 -48.4381 230.895 -32.217 526.976L180 491.891C156.621 65.1494 -109.64 -230.649 -413.528 -167.476Z" fill="url(#paint1_linear_67_11)"/>
</g>
</g>
</g>
<defs>
<filter id="filter0_f_67_11" x="-289" y="0" width="1885.95" height="1502.91" filterUnits="userSpaceOnUse" color-interpolation-filters="sRGB">
<feFlood flood-opacity="0" result="BackgroundImageFix"/>
<feBlend mode="normal" in="SourceGraphic" in2="BackgroundImageFix" result="shape"/>
<feGaussianBlur stdDeviation="200" result="effect1_foregroundBlur_67_11"/>
</filter>
<filter id="filter1_f_67_11" x="-894.914" y="-575.976" width="1474.91" height="1502.95" filterUnits="userSpaceOnUse" color-interpolation-filters="sRGB">
<feFlood flood-opacity="0" result="BackgroundImageFix"/>
<feBlend mode="normal" in="SourceGraphic" in2="BackgroundImageFix" result="shape"/>
<feGaussianBlur stdDeviation="200" result="effect1_foregroundBlur_67_11"/>
</filter>
<linearGradient id="paint0_linear_67_11" x1="1031.9" y1="707.432" x2="141.917" y2="785.89" gradientUnits="userSpaceOnUse">
<stop stop-color="#40FF00"/>
<stop offset="1" stop-color="#FE0000"/>
</linearGradient>
<linearGradient id="paint1_linear_67_11" x1="-392.335" y1="219.526" x2="163.416" y2="189.078" gradientUnits="userSpaceOnUse">
<stop stop-color="#40FF00"/>
<stop offset="1" stop-color="#FE0000"/>
</linearGradient>
<clipPath id="clip0_67_11">
<rect width="428" height="1503" fill="white"/>
</clipPath>
<clipPath id="clip1_67_11">
<rect width="266" height="1503" fill="white" transform="matrix(-1 0 0 -1 180 927)"/>
</clipPath>
</defs>
</svg>
